<svg width="143" height="34" viewBox="0 0 143 34" fill="none" xmlns="http://www.w3.org/2000/svg">
<g filter="url(#filter0_d_122_16749)">
<path d="M50.875 1.25V24H46.0312V1.25H50.875ZM57.8281 1.25V5.03125H39.1875V1.25H57.8281ZM72.0156 18.0312C72.0156 17.6354 71.9531 17.276 71.8281 16.9531C71.7135 16.6302 71.5 16.3333 71.1875 16.0625C70.875 15.7917 70.4323 15.526 69.8594 15.2656C69.2865 14.9948 68.5469 14.7135 67.6406 14.4219C66.6094 14.0885 65.6302 13.7135 64.7031 13.2969C63.7865 12.8802 62.974 12.3906 62.2656 11.8281C61.5573 11.2656 61 10.6146 60.5938 9.875C60.1875 9.125 59.9844 8.26042 59.9844 7.28125C59.9844 6.32292 60.1927 5.45833 60.6094 4.6875C61.026 3.90625 61.6146 3.23958 62.375 2.6875C63.1354 2.125 64.0312 1.69271 65.0625 1.39062C66.0938 1.08854 67.2292 0.9375 68.4688 0.9375C70.1458 0.9375 71.6094 1.23958 72.8594 1.84375C74.1198 2.4375 75.099 3.26042 75.7969 4.3125C76.4948 5.36458 76.8438 6.57812 76.8438 7.95312H72.0312C72.0312 7.30729 71.8958 6.73958 71.625 6.25C71.3542 5.75 70.9479 5.35938 70.4062 5.07812C69.875 4.78646 69.1979 4.64062 68.375 4.64062C67.5938 4.64062 66.9375 4.76042 66.4062 5C65.875 5.23958 65.474 5.5625 65.2031 5.96875C64.9427 6.36458 64.8125 6.80729 64.8125 7.29688C64.8125 7.68229 64.9115 8.02604 65.1094 8.32812C65.3073 8.63021 65.5938 8.91667 65.9688 9.1875C66.3438 9.44792 66.8073 9.69792 67.3594 9.9375C67.9219 10.1667 68.5625 10.3906 69.2812 10.6094C70.5104 10.9948 71.5938 11.4219 72.5312 11.8906C73.4792 12.3594 74.2708 12.8906 74.9062 13.4844C75.5521 14.0677 76.0365 14.7344 76.3594 15.4844C76.6927 16.224 76.8594 17.0625 76.8594 18C76.8594 19 76.6615 19.8906 76.2656 20.6719C75.8802 21.4531 75.3229 22.1146 74.5938 22.6562C73.8646 23.1979 72.9896 23.6094 71.9688 23.8906C70.9583 24.1719 69.8281 24.3125 68.5781 24.3125C67.4427 24.3125 66.3229 24.1667 65.2188 23.875C64.1146 23.5729 63.1146 23.1198 62.2188 22.5156C61.3333 21.901 60.6198 21.125 60.0781 20.1875C59.5469 19.2396 59.2812 18.1198 59.2812 16.8281H64.1406C64.1406 17.526 64.2448 18.1198 64.4531 18.6094C64.6615 19.0885 64.9583 19.4792 65.3438 19.7812C65.7396 20.0729 66.2083 20.2865 66.75 20.4219C67.3021 20.5573 67.9115 20.625 68.5781 20.625C69.3698 20.625 70.0156 20.5104 70.5156 20.2812C71.026 20.0521 71.401 19.7448 71.6406 19.3594C71.8906 18.9635 72.0156 18.5208 72.0156 18.0312ZM82.2344 1.25H86.2969L91.9844 17.7812L97.6875 1.25H101.75L93.625 24H90.3438L82.2344 1.25ZM79.9688 1.25H84.0625L84.8125 17.7656V24H79.9688V1.25ZM99.9219 1.25H104.016V24H99.1719V17.7656L99.9219 1.25ZM121.141 16.4219H125.969C125.875 17.9635 125.453 19.3333 124.703 20.5312C123.953 21.7188 122.906 22.6458 121.562 23.3125C120.229 23.9792 118.63 24.3125 116.766 24.3125C115.297 24.3125 113.979 24.0625 112.812 23.5625C111.646 23.0521 110.651 22.3229 109.828 21.375C109.016 20.4167 108.396 19.2656 107.969 17.9219C107.542 16.5781 107.328 15.0677 107.328 13.3906V11.875C107.328 10.1979 107.547 8.6875 107.984 7.34375C108.432 5.98958 109.068 4.83854 109.891 3.89062C110.724 2.93229 111.724 2.19792 112.891 1.6875C114.057 1.17708 115.354 0.921875 116.781 0.921875C118.688 0.921875 120.302 1.27083 121.625 1.96875C122.948 2.65625 123.969 3.60417 124.688 4.8125C125.417 6.02083 125.854 7.40625 126 8.96875H121.172C121.12 8.05208 120.938 7.28125 120.625 6.65625C120.323 6.03125 119.859 5.55729 119.234 5.23438C118.62 4.91146 117.802 4.75 116.781 4.75C116.021 4.75 115.354 4.89583 114.781 5.1875C114.208 5.46875 113.729 5.90104 113.344 6.48438C112.969 7.06771 112.688 7.80729 112.5 8.70312C112.312 9.58854 112.219 10.6354 112.219 11.8438V13.3906C112.219 14.5677 112.302 15.599 112.469 16.4844C112.646 17.3698 112.917 18.1094 113.281 18.7031C113.646 19.2969 114.115 19.7448 114.688 20.0469C115.26 20.349 115.953 20.5 116.766 20.5C117.714 20.5 118.5 20.349 119.125 20.0469C119.75 19.7448 120.229 19.2917 120.562 18.6875C120.896 18.0833 121.089 17.3281 121.141 16.4219Z" fill="white"/>
</g>
<path d="M26.9769 7.31643C26.9769 4.46743 24.2807 2.15793 20.9586 2.15793C19.6514 2.15793 18.4491 2.51893 17.468 3.12943C17.4627 3.13143 17.4581 3.13143 17.4546 3.13393C15.1271 4.38493 12.5843 2.85443 12.5843 2.85443C12.5843 2.85443 12.5785 2.86393 12.5773 2.86593C11.3611 1.74043 9.63731 1.02393 7.70472 1.02393C4.01514 1.02393 1.02439 3.58743 1.02439 6.74993C0.935722 9.36843 4.37272 17.6024 5.78206 20.8594L6.47972 22.6709C6.51064 22.7794 6.55497 22.8789 6.59931 22.9824L6.66172 23.1414L6.66872 23.1354C6.67222 23.1434 6.67922 23.1489 6.68156 23.1529C6.92831 23.6059 7.47897 24.2504 7.47897 24.2504L7.48072 24.2404C7.89781 24.6849 8.52781 24.9749 9.24647 24.9749C10.104 24.9749 10.8413 24.5669 11.2316 23.9669C11.238 23.9569 11.2432 23.9484 11.2496 23.9394C11.3611 23.7619 11.4456 23.5714 11.4882 23.3654C11.4894 23.3624 11.4917 23.3604 11.4923 23.3574C11.9071 21.6814 13.5596 15.7199 13.5596 15.7199C13.5591 15.7034 13.5486 15.6894 13.5486 15.6729C13.5486 15.6279 13.5713 15.5899 13.5777 15.5469C13.5894 15.4579 13.5993 15.4034 13.5993 15.4034L13.6104 15.4124C13.744 15.0314 14.1412 14.7474 14.6301 14.7474C14.864 14.7474 15.0699 14.8234 15.2478 14.9329C15.2665 14.9419 15.2834 14.9544 15.3021 14.9649C15.5459 15.1349 15.7098 15.3829 15.7098 15.6729C15.7098 15.6729 17.6138 21.6584 17.8483 23.1624C17.8524 23.1859 17.8606 23.2034 17.8629 23.2259C17.8921 23.4534 17.9615 23.6694 18.0723 23.8664C18.4066 24.5254 18.9759 24.7559 19.2256 24.8274C19.2419 24.8284 19.2571 24.8294 19.2722 24.8314C19.5365 24.9224 19.8211 24.9749 20.1233 24.9749C20.8221 24.9749 21.4416 24.7024 21.8599 24.2784L21.8657 24.2794C21.8657 24.2794 21.8803 24.2629 21.8844 24.2599C21.8902 24.2539 21.8943 24.2494 21.8978 24.2444C21.9777 24.1624 22.3353 23.7804 22.571 23.3174H22.5739L22.5966 23.2714C22.5984 23.2674 22.6013 23.2654 22.6013 23.2614C22.6025 23.2594 22.6025 23.2584 22.6025 23.2554L22.6865 23.0814C22.7011 23.0609 22.718 23.0414 22.7273 23.0189H22.7331L22.7518 22.9719C22.7576 22.9619 22.7617 22.9494 22.7652 22.9409L23.1491 22.0319L23.1421 22.0329C25.1884 18.0534 26.393 11.1989 26.8083 8.48293C26.9098 8.10693 26.9769 7.71893 26.9769 7.31643Z" fill="white"/>
<defs>
<filter id="filter0_d_122_16749" x="35.1875" y="0.921875" width="94.8125" height="31.3906" filterUnits="userSpaceOnUse" color-interpolation-filters="sRGB">
<feFlood flood-opacity="0" result="BackgroundImageFix"/>
<feColorMatrix in="SourceAlpha" type="matrix" values="0 0 0 0 0 0 0 0 0 0 0 0 0 0 0 0 0 0 127 0" result="hardAlpha"/>
<feOffset dy="4"/>
<feGaussianBlur stdDeviation="2"/>
<feComposite in2="hardAlpha" operator="out"/>
<feColorMatrix type="matrix" values="0 0 0 0 0 0 0 0 0 0 0 0 0 0 0 0 0 0 0.25 0"/>
<feBlend mode="normal" in2="BackgroundImageFix" result="effect1_dropShadow_122_16749"/>
<feBlend mode="normal" in="SourceGraphic" in2="effect1_dropShadow_122_16749" result="shape"/>
</filter>
</defs>
</svg>
